<?xml version="1.0" encoding="UTF-8"?>
<svg width="1050px" height="600px" viewBox="0 0 1050 600" version="1.1" xmlns="http://www.w3.org/2000/svg" xmlns:xlink="http://www.w3.org/1999/xlink">
    <!-- Generator: Sketch 49 (51002) - http://www.bohemiancoding.com/sketch -->
    <title>ethos-automation-logo-white</title>
    <desc>Created with Sketch.</desc>
    <defs></defs>
    <g id="ethos-automation-logo-white" stroke="none" stroke-width="1" fill="none" fill-rule="evenodd">
        <g id="Group-3" transform="translate(130.000000, 169.000000)">
            <g id="Group-2" transform="translate(0.000000, 3.000000)" fill="#FFFFFF">
                <rect id="Rectangle" x="0" y="0.2" width="149.35103" height="34.2921875" rx="8"></rect>
                <rect id="Rectangle" x="0" y="58.5" width="111.636719" height="34.2921875" rx="8"></rect>
                <rect id="Rectangle" x="0" y="117.5" width="149.35103" height="34.2921875" rx="8"></rect>
            </g>
            <path d="M219.08802,154.7 L219.08802,37.22 L173.281967,37.22 L173.281967,3.56 L302.152585,3.56 L302.152585,37.22 L256.5657,37.22 L256.5657,154.7 L219.08802,154.7 Z M423.15309,3.56 L460.630769,3.56 L460.630769,154.7 L423.15309,154.7 L423.15309,94.42 L361.566961,94.42 L361.566961,154.7 L324.089281,154.7 L324.089281,3.56 L361.566961,3.56 L361.566961,60.76 L423.15309,60.76 L423.15309,3.56 Z M565.851198,157.34 C522.017654,157.34 484.97831,121.48 484.97831,79.02 C484.97831,36.56 522.017654,0.92 565.851198,0.92 C609.903909,0.92 646.943253,36.56 646.943253,79.02 C646.943253,121.48 609.903909,157.34 565.851198,157.34 Z M563.858764,123.24 C586.871375,123.24 606.377301,103 606.377301,79.02 C606.377301,55.26 586.871375,35.02 563.858764,35.02 C540.846154,35.02 521.340227,55.26 521.340227,79.02 C521.340227,103 540.846154,123.24 563.858764,123.24 Z M729.589407,157.34 C702.850946,157.34 678.523329,148.54 660.332409,132.04 L681.372509,106.74 C696.056747,118.84 712.494325,125.88 730.904414,125.88 C744.931148,125.88 752.163682,120.16 752.163682,112.02 C752.163682,103 745.150315,101.02 723.233544,95.74 C691.015889,88.48 667.126608,79.68 667.126608,49.32 C667.126608,20.28 690.358386,0.92 724.767718,0.92 C749.972005,0.92 769.6971,8.18 785.696343,21.6 L766.628752,48.44 C752.821185,37.88 737.698613,32.38 723.671879,32.38 C711.617654,32.38 704.823455,38.1 704.823455,45.58 C704.823455,54.82 712.05599,57.9 734.411097,62.74 C768.162926,70 789.86053,79.68 789.86053,108.06 C789.86053,138.42 766.847919,157.34 729.589407,157.34 Z" id="THOS" fill="#FFFFFF"></path>
            <path d="M58.8437167,260.090525 L52.2423901,245.028343 L15.6096767,245.028343 L9.00835011,260.090525 L2.5,260.090525 L30.6718583,196.215717 L37.1802085,196.215717 L65.3520668,260.090525 L58.8437167,260.090525 Z M18.2130167,239.263804 L49.6390501,239.263804 L33.9260334,203.560855 L18.2130167,239.263804 Z M118.162679,261.206242 C102.914545,261.206242 92.1292787,250.04907 92.1292787,234.243077 L92.1292787,196.215717 L98.0797702,196.215717 L98.0797702,234.243077 C98.0797702,246.794895 106.447649,255.720632 118.162679,255.720632 C129.877709,255.720632 138.245588,246.794895 138.245588,234.243077 L138.245588,196.215717 L144.19608,196.215717 L144.19608,234.243077 C144.19608,250.04907 133.410814,261.206242 118.162679,261.206242 Z M197.099668,260.090525 L197.099668,201.887279 L174.971278,201.887279 L174.971278,196.215717 L225.17855,196.215717 L225.17855,201.887279 L203.05016,201.887279 L203.05016,260.090525 L197.099668,260.090525 Z M281.522267,261.206242 C263.856745,261.206242 248.794564,246.051084 248.794564,228.106633 C248.794564,210.162182 263.856745,195.1 281.522267,195.1 C299.280765,195.1 314.156994,210.162182 314.156994,228.106633 C314.156994,246.051084 299.280765,261.206242 281.522267,261.206242 Z M281.522267,255.627656 C296.02659,255.627656 308.113526,243.075838 308.113526,228.106633 C308.113526,213.230404 296.02659,200.678586 281.522267,200.678586 C267.017944,200.678586 254.838032,213.230404 254.838032,228.106633 C254.838032,243.075838 267.017944,255.627656 281.522267,255.627656 Z M346.326839,260.090525 L346.326839,196.215717 L352.27733,196.215717 L376.637155,241.960121 L400.99698,196.215717 L406.947471,196.215717 L406.947471,260.090525 L400.99698,260.090525 L400.99698,208.860512 L376.637155,254.604915 L352.27733,208.860512 L352.27733,260.090525 L346.326839,260.090525 Z M493.601504,260.090525 L487.000178,245.028343 L450.367464,245.028343 L443.766138,260.090525 L437.257788,260.090525 L465.429646,196.215717 L471.937996,196.215717 L500.109854,260.090525 L493.601504,260.090525 Z M452.970804,239.263804 L484.396838,239.263804 L468.683821,203.560855 L452.970804,239.263804 Z M542.228177,260.090525 L542.228177,201.887279 L520.099787,201.887279 L520.099787,196.215717 L570.307059,196.215717 L570.307059,201.887279 L548.178669,201.887279 L548.178669,260.090525 L542.228177,260.090525 Z M600.431422,260.090525 L600.431422,196.215717 L606.381914,196.215717 L606.381914,260.090525 L600.431422,260.090525 Z M669.884816,261.206242 C652.219294,261.206242 637.157112,246.051084 637.157112,228.106633 C637.157112,210.162182 652.219294,195.1 669.884816,195.1 C687.643314,195.1 702.519543,210.162182 702.519543,228.106633 C702.519543,246.051084 687.643314,261.206242 669.884816,261.206242 Z M669.884816,255.627656 C684.389139,255.627656 696.476075,243.075838 696.476075,228.106633 C696.476075,213.230404 684.389139,200.678586 669.884816,200.678586 C655.380493,200.678586 643.20058,213.230404 643.20058,228.106633 C643.20058,243.075838 655.380493,255.627656 669.884816,255.627656 Z M734.689388,260.090525 L734.689388,196.215717 L740.639879,196.215717 L781.549508,250.420976 L781.549508,196.215717 L787.5,196.215717 L787.5,260.090525 L781.549508,260.090525 L740.639879,205.885266 L740.639879,260.090525 L734.689388,260.090525 Z" id="AUTOMATION" fill="#F0F0F0"></path>
        </g>
    </g>
</svg>